<?xml version="1.0" encoding="UTF-8" standalone="no"?>
<!-- Created with Inkscape (http://www.inkscape.org/) -->

<svg
   xmlns:dc="http://purl.org/dc/elements/1.1/"
   xmlns:cc="http://creativecommons.org/ns#"
   xmlns:rdf="http://www.w3.org/1999/02/22-rdf-syntax-ns#"
   xmlns:svg="http://www.w3.org/2000/svg"
   xmlns="http://www.w3.org/2000/svg"
   xmlns:sodipodi="http://sodipodi.sourceforge.net/DTD/sodipodi-0.dtd"
   xmlns:inkscape="http://www.inkscape.org/namespaces/inkscape"
   inkscape:export-ydpi="22.5"
   inkscape:export-xdpi="22.5"
   inkscape:export-filename="/home/joker/Projects/Kunzisoft/Inkscape/Android Icon Template_low"
   id="svg2"
   version="1.1"
   inkscape:version="0.92.1 r15371"
   xml:space="preserve"
   width="32"
   height="32"
   viewBox="0 0 32 32"
   sodipodi:docname="ic_floating_button_notification.svg"><sodipodi:namedview
     pagecolor="#d7d7d7"
     bordercolor="#666666"
     borderopacity="1"
     objecttolerance="10"
     gridtolerance="10"
     guidetolerance="10"
     inkscape:pageopacity="0"
     inkscape:pageshadow="2"
     inkscape:window-width="1920"
     inkscape:window-height="1016"
     id="namedview4"
     showgrid="true"
     inkscape:zoom="16.000001"
     inkscape:cx="-3.929736"
     inkscape:cy="13.947205"
     inkscape:window-x="1920"
     inkscape:window-y="74"
     inkscape:window-maximized="1"
     inkscape:current-layer="layer4"
     showguides="false"><inkscape:grid
       id="grid4646"
       type="xygrid"
       empspacing="4"
       dotted="false" /></sodipodi:namedview><metadata
     id="metadata8"><rdf:RDF><cc:Work
         rdf:about=""><dc:format>image/svg+xml</dc:format><dc:type
           rdf:resource="http://purl.org/dc/dcmitype/StillImage" /><dc:title /></cc:Work></rdf:RDF></metadata><defs
     id="defs6"><marker
       inkscape:stockid="Arrow1Mstart"
       orient="auto"
       refY="0"
       refX="0"
       id="marker11240"
       style="overflow:visible"
       inkscape:isstock="true"><path
         id="path11242"
         d="M 0,0 5,-5 -12.5,0 5,5 Z"
         style="fill:#000000;fill-opacity:1;fill-rule:evenodd;stroke:#000000;stroke-width:1.00000003pt;stroke-opacity:1"
         transform="matrix(0.4,0,0,0.4,4,0)"
         inkscape:connector-curvature="0" /></marker><marker
       inkscape:stockid="Arrow1Mend"
       orient="auto"
       refY="0"
       refX="0"
       id="Arrow1Mend"
       style="overflow:visible"
       inkscape:isstock="true"><path
         id="path10431"
         d="M 0,0 5,-5 -12.5,0 5,5 Z"
         style="fill:#000000;fill-opacity:1;fill-rule:evenodd;stroke:#000000;stroke-width:1.00000003pt;stroke-opacity:1"
         transform="matrix(-0.4,0,0,-0.4,-4,0)"
         inkscape:connector-curvature="0" /></marker><marker
       inkscape:stockid="Arrow1Mstart"
       orient="auto"
       refY="0"
       refX="0"
       id="marker11224"
       style="overflow:visible"
       inkscape:isstock="true"><path
         id="path11226"
         d="M 0,0 5,-5 -12.5,0 5,5 Z"
         style="fill:#000000;fill-opacity:1;fill-rule:evenodd;stroke:#000000;stroke-width:1.00000003pt;stroke-opacity:1"
         transform="matrix(0.4,0,0,0.4,4,0)"
         inkscape:connector-curvature="0" /></marker><marker
       inkscape:stockid="Arrow1Mstart"
       orient="auto"
       refY="0"
       refX="0"
       id="marker11098"
       style="overflow:visible"
       inkscape:isstock="true"><path
         id="path11100"
         d="M 0,0 5,-5 -12.5,0 5,5 Z"
         style="fill:#000000;fill-opacity:1;fill-rule:evenodd;stroke:#000000;stroke-width:1.00000003pt;stroke-opacity:1"
         transform="matrix(0.4,0,0,0.4,4,0)"
         inkscape:connector-curvature="0" /></marker><marker
       inkscape:stockid="Arrow1Mstart"
       orient="auto"
       refY="0"
       refX="0"
       id="marker10904"
       style="overflow:visible"
       inkscape:isstock="true"><path
         id="path10906"
         d="M 0,0 5,-5 -12.5,0 5,5 Z"
         style="fill:#000000;fill-opacity:1;fill-rule:evenodd;stroke:#000000;stroke-width:1.00000003pt;stroke-opacity:1"
         transform="matrix(0.4,0,0,0.4,4,0)"
         inkscape:connector-curvature="0" /></marker><marker
       inkscape:stockid="Arrow1Mstart"
       orient="auto"
       refY="0"
       refX="0"
       id="marker10888"
       style="overflow:visible"
       inkscape:isstock="true"><path
         id="path10890"
         d="M 0,0 5,-5 -12.5,0 5,5 Z"
         style="fill:#000000;fill-opacity:1;fill-rule:evenodd;stroke:#000000;stroke-width:1.00000003pt;stroke-opacity:1"
         transform="matrix(0.4,0,0,0.4,4,0)"
         inkscape:connector-curvature="0" /></marker><marker
       inkscape:stockid="Arrow1Mstart"
       orient="auto"
       refY="0"
       refX="0"
       id="marker10882"
       style="overflow:visible"
       inkscape:isstock="true"><path
         id="path10884"
         d="M 0,0 5,-5 -12.5,0 5,5 Z"
         style="fill:#000000;fill-opacity:1;fill-rule:evenodd;stroke:#000000;stroke-width:1.00000003pt;stroke-opacity:1"
         transform="matrix(0.4,0,0,0.4,4,0)"
         inkscape:connector-curvature="0" /></marker><marker
       inkscape:isstock="true"
       style="overflow:visible"
       id="marker10851"
       refX="0"
       refY="0"
       orient="auto"
       inkscape:stockid="Arrow1Mstart"><path
         transform="matrix(0.4,0,0,0.4,4,0)"
         style="fill:#000000;fill-opacity:1;fill-rule:evenodd;stroke:#000000;stroke-width:1.00000003pt;stroke-opacity:1"
         d="M 0,0 5,-5 -12.5,0 5,5 Z"
         id="path10853"
         inkscape:connector-curvature="0" /></marker><marker
       inkscape:stockid="Arrow1Mstart"
       orient="auto"
       refY="0"
       refX="0"
       id="Arrow1Mstart"
       style="overflow:visible"
       inkscape:isstock="true"><path
         id="path10428"
         d="M 0,0 5,-5 -12.5,0 5,5 Z"
         style="fill:#000000;fill-opacity:1;fill-rule:evenodd;stroke:#000000;stroke-width:1.00000003pt;stroke-opacity:1"
         transform="matrix(0.4,0,0,0.4,4,0)"
         inkscape:connector-curvature="0" /></marker><marker
       inkscape:stockid="Arrow2Lstart"
       orient="auto"
       refY="0"
       refX="0"
       id="marker10769"
       style="overflow:visible"
       inkscape:isstock="true"><path
         id="path10771"
         style="fill:#000000;fill-opacity:1;fill-rule:evenodd;stroke:#000000;stroke-width:0.625;stroke-linejoin:round;stroke-opacity:1"
         d="M 8.7185878,4.0337352 -2.2072895,0.01601326 8.7185884,-4.0017078 c -1.7454984,2.3720609 -1.7354408,5.6174519 -6e-7,8.035443 z"
         transform="matrix(1.1,0,0,1.1,1.1,0)"
         inkscape:connector-curvature="0" /></marker><marker
       inkscape:stockid="Arrow2Mstart"
       orient="auto"
       refY="0"
       refX="0"
       id="Arrow2Mstart"
       style="overflow:visible"
       inkscape:isstock="true"><path
         id="path10446"
         style="fill:#000000;fill-opacity:1;fill-rule:evenodd;stroke:#000000;stroke-width:0.625;stroke-linejoin:round;stroke-opacity:1"
         d="M 8.7185878,4.0337352 -2.2072895,0.01601326 8.7185884,-4.0017078 c -1.7454984,2.3720609 -1.7354408,5.6174519 -6e-7,8.035443 z"
         transform="scale(0.6)"
         inkscape:connector-curvature="0" /></marker><marker
       inkscape:stockid="Arrow1Sstart"
       orient="auto"
       refY="0"
       refX="0"
       id="Arrow1Sstart"
       style="overflow:visible"
       inkscape:isstock="true"><path
         id="path10434"
         d="M 0,0 5,-5 -12.5,0 5,5 Z"
         style="fill:#000000;fill-opacity:1;fill-rule:evenodd;stroke:#000000;stroke-width:1.00000003pt;stroke-opacity:1"
         transform="matrix(0.2,0,0,0.2,1.2,0)"
         inkscape:connector-curvature="0" /></marker><marker
       inkscape:stockid="Arrow2Lstart"
       orient="auto"
       refY="0"
       refX="0"
       id="Arrow2Lstart"
       style="overflow:visible"
       inkscape:isstock="true"><path
         id="path10440"
         style="fill:#000000;fill-opacity:1;fill-rule:evenodd;stroke:#000000;stroke-width:0.625;stroke-linejoin:round;stroke-opacity:1"
         d="M 8.7185878,4.0337352 -2.2072895,0.01601326 8.7185884,-4.0017078 c -1.7454984,2.3720609 -1.7354408,5.6174519 -6e-7,8.035443 z"
         transform="matrix(1.1,0,0,1.1,1.1,0)"
         inkscape:connector-curvature="0" /></marker><marker
       inkscape:stockid="Arrow1Lstart"
       orient="auto"
       refY="0"
       refX="0"
       id="Arrow1Lstart"
       style="overflow:visible"
       inkscape:isstock="true"><path
         id="path10422"
         d="M 0,0 5,-5 -12.5,0 5,5 Z"
         style="fill:#000000;fill-opacity:1;fill-rule:evenodd;stroke:#000000;stroke-width:1.00000003pt;stroke-opacity:1"
         transform="matrix(0.8,0,0,0.8,10,0)"
         inkscape:connector-curvature="0" /></marker><clipPath
       id="clipPath16"
       clipPathUnits="userSpaceOnUse"><path
         inkscape:connector-curvature="0"
         id="path18"
         d="M 0,192 H 192 V 0 H 0 Z" /></clipPath><clipPath
       id="clipPath26"
       clipPathUnits="userSpaceOnUse"><path
         inkscape:connector-curvature="0"
         id="path28"
         d="M -4.88281e-4,192 H 192 V -4.88281e-4 H -4.88281e-4 Z" /></clipPath><clipPath
       id="clipPath34"
       clipPathUnits="userSpaceOnUse"><path
         inkscape:connector-curvature="0"
         id="path36"
         d="M -4.88281e-4,192 H 192 V -4.88281e-4 H -4.88281e-4 Z" /></clipPath><clipPath
       id="clipPath38"
       clipPathUnits="userSpaceOnUse"><path
         inkscape:connector-curvature="0"
         id="path40"
         d="M 0,192 H 192 V 0 H 0 Z" /></clipPath><clipPath
       id="clipPath42"
       clipPathUnits="userSpaceOnUse"><path
         inkscape:connector-curvature="0"
         id="path44"
         d="M 0,192 H 192 V 0 H 0 Z" /></clipPath><clipPath
       id="clipPath116"
       clipPathUnits="userSpaceOnUse"><path
         inkscape:connector-curvature="0"
         id="path118"
         d="M 0,192 H 192 V -4.88281e-4 H 0 Z" /></clipPath><clipPath
       id="clipPath120"
       clipPathUnits="userSpaceOnUse"><path
         inkscape:connector-curvature="0"
         id="path122"
         d="M 0,192 H 192 V 4.88281e-4 H 0 Z" /></clipPath><clipPath
       id="clipPath124"
       clipPathUnits="userSpaceOnUse"><path
         inkscape:connector-curvature="0"
         id="path126"
         d="M 192,192 H 0 V 0 h 192 z" /></clipPath><filter
       style="color-interpolation-filters:sRGB"
       inkscape:label="Drop Shadow"
       id="filter10356"><feFlood
         flood-opacity="0.196078"
         flood-color="rgb(0,0,0)"
         result="flood"
         id="feFlood10358" /><feComposite
         in="flood"
         in2="SourceGraphic"
         operator="in"
         result="composite1"
         id="feComposite10360" /><feGaussianBlur
         in="composite1"
         stdDeviation="4"
         result="blur"
         id="feGaussianBlur10362" /><feOffset
         dx="4"
         dy="4"
         result="offset"
         id="feOffset10364" /><feComposite
         in="SourceGraphic"
         in2="offset"
         operator="over"
         result="composite2"
         id="feComposite10366" /></filter><marker
       inkscape:stockid="Arrow1Sstart"
       orient="auto"
       refY="0"
       refX="0"
       id="Arrow1Sstart-3"
       style="overflow:visible"
       inkscape:isstock="true"><path
         inkscape:connector-curvature="0"
         id="path10434-6"
         d="M 0,0 5,-5 -12.5,0 5,5 Z"
         style="fill:#000000;fill-opacity:1;fill-rule:evenodd;stroke:#000000;stroke-width:1.00000003pt;stroke-opacity:1"
         transform="matrix(0.2,0,0,0.2,1.2,0)" /></marker><marker
       inkscape:stockid="Arrow1Sstart"
       orient="auto"
       refY="0"
       refX="0"
       id="Arrow1Sstart-3-7"
       style="overflow:visible"
       inkscape:isstock="true"><path
         inkscape:connector-curvature="0"
         id="path10434-6-5"
         d="M 0,0 5,-5 -12.5,0 5,5 Z"
         style="fill:#000000;fill-opacity:1;fill-rule:evenodd;stroke:#000000;stroke-width:1.00000003pt;stroke-opacity:1"
         transform="matrix(0.2,0,0,0.2,1.2,0)" /></marker><marker
       inkscape:stockid="Arrow2Mstart"
       orient="auto"
       refY="0"
       refX="0"
       id="Arrow2Mstart-3"
       style="overflow:visible"
       inkscape:isstock="true"><path
         inkscape:connector-curvature="0"
         id="path10446-5"
         style="fill:#000000;fill-opacity:1;fill-rule:evenodd;stroke:#000000;stroke-width:0.625;stroke-linejoin:round;stroke-opacity:1"
         d="M 8.7185878,4.0337352 -2.2072895,0.01601326 8.7185884,-4.0017078 c -1.7454984,2.3720609 -1.7354408,5.6174519 -6e-7,8.035443 z"
         transform="scale(0.6)" /></marker><filter
       id="filter6016"
       inkscape:label="Drop Shadow"
       style="color-interpolation-filters:sRGB"><feFlood
         id="feFlood6018"
         result="flood"
         flood-color="rgb(0,0,0)"
         flood-opacity="0.239216" /><feComposite
         id="feComposite6020"
         result="composite1"
         operator="in"
         in2="SourceGraphic"
         in="flood" /><feGaussianBlur
         id="feGaussianBlur6022"
         result="blur"
         stdDeviation="2"
         in="composite1" /><feOffset
         id="feOffset6024"
         result="offset"
         dy="4"
         dx="0" /><feComposite
         id="feComposite6026"
         result="fbSourceGraphic"
         operator="over"
         in2="offset"
         in="SourceGraphic" /><feColorMatrix
         id="feColorMatrix6028"
         values="0 0 0 -1 0 0 0 0 -1 0 0 0 0 -1 0 0 0 0 1 0"
         in="fbSourceGraphic"
         result="fbSourceGraphicAlpha" /><feFlood
         in="fbSourceGraphic"
         result="flood"
         flood-color="rgb(0,0,0)"
         flood-opacity="0.121569"
         id="feFlood6030" /><feComposite
         result="composite1"
         operator="in"
         in="flood"
         in2="fbSourceGraphic"
         id="feComposite6032" /><feGaussianBlur
         result="blur"
         stdDeviation="2"
         in="composite1"
         id="feGaussianBlur6034" /><feOffset
         result="offset"
         dy="0"
         dx="0"
         id="feOffset6036" /><feComposite
         result="composite2"
         operator="over"
         in="fbSourceGraphic"
         in2="offset"
         id="feComposite6038" /></filter><filter
       id="filter6045"
       inkscape:label="Drop Shadow"
       style="color-interpolation-filters:sRGB"><feFlood
         id="feFlood6047"
         result="flood"
         flood-color="rgb(0,0,0)"
         flood-opacity="0.2" /><feComposite
         id="feComposite6049"
         result="composite1"
         operator="in"
         in2="SourceGraphic"
         in="flood" /><feGaussianBlur
         id="feGaussianBlur6051"
         result="blur"
         stdDeviation="4"
         in="composite1" /><feOffset
         id="feOffset6053"
         result="offset"
         dy="4"
         dx="0" /><feComposite
         id="feComposite6055"
         result="composite2"
         operator="over"
         in2="offset"
         in="SourceGraphic" /></filter><filter
       id="filter6016-3"
       inkscape:label="Drop Shadow"
       style="color-interpolation-filters:sRGB"><feFlood
         id="feFlood6018-5"
         result="flood"
         flood-color="rgb(0,0,0)"
         flood-opacity="0.239216" /><feComposite
         id="feComposite6020-6"
         result="composite1"
         operator="in"
         in2="SourceGraphic"
         in="flood" /><feGaussianBlur
         id="feGaussianBlur6022-2"
         result="blur"
         stdDeviation="2"
         in="composite1" /><feOffset
         id="feOffset6024-9"
         result="offset"
         dy="4"
         dx="0" /><feComposite
         id="feComposite6026-1"
         result="fbSourceGraphic"
         operator="over"
         in2="offset"
         in="SourceGraphic" /><feColorMatrix
         id="feColorMatrix6028-2"
         values="0 0 0 -1 0 0 0 0 -1 0 0 0 0 -1 0 0 0 0 1 0"
         in="fbSourceGraphic"
         result="fbSourceGraphicAlpha" /><feFlood
         in="fbSourceGraphic"
         result="flood"
         flood-color="rgb(0,0,0)"
         flood-opacity="0.121569"
         id="feFlood6030-7" /><feComposite
         result="composite1"
         operator="in"
         in="flood"
         in2="fbSourceGraphic"
         id="feComposite6032-0" /><feGaussianBlur
         result="blur"
         stdDeviation="2"
         in="composite1"
         id="feGaussianBlur6034-9" /><feOffset
         result="offset"
         dy="0"
         dx="0"
         id="feOffset6036-3" /><feComposite
         result="composite2"
         operator="over"
         in="fbSourceGraphic"
         in2="offset"
         id="feComposite6038-6" /></filter><filter
       id="filter4884"
       inkscape:label="Drop Shadow"
       style="color-interpolation-filters:sRGB"><feFlood
         id="feFlood4886"
         result="flood"
         flood-color="rgb(0,0,0)"
         flood-opacity="0.2" /><feComposite
         id="feComposite4888"
         result="composite1"
         operator="in"
         in2="SourceGraphic"
         in="flood" /><feGaussianBlur
         id="feGaussianBlur4890"
         result="blur"
         stdDeviation="4"
         in="composite1" /><feOffset
         id="feOffset4892"
         result="offset"
         dy="4"
         dx="0" /><feComposite
         id="feComposite4894"
         result="composite2"
         operator="over"
         in2="offset"
         in="SourceGraphic" /></filter><filter
       style="color-interpolation-filters:sRGB"
       inkscape:label="Drop Shadow"
       id="filter8967"><feFlood
         flood-opacity="0.2"
         flood-color="rgb(0,0,0)"
         result="flood"
         id="feFlood8969" /><feComposite
         in="flood"
         in2="SourceGraphic"
         operator="in"
         result="composite1"
         id="feComposite8971" /><feGaussianBlur
         in="composite1"
         stdDeviation="4"
         result="blur"
         id="feGaussianBlur8973" /><feOffset
         dx="0"
         dy="4"
         result="offset"
         id="feOffset8975" /><feComposite
         in="SourceGraphic"
         in2="offset"
         operator="over"
         result="composite2"
         id="feComposite8977" /></filter><filter
       style="color-interpolation-filters:sRGB"
       inkscape:label="Drop Shadow"
       id="filter4946"><feFlood
         flood-opacity="0.2"
         flood-color="rgb(0,0,0)"
         result="flood"
         id="feFlood4948" /><feComposite
         in="flood"
         in2="SourceGraphic"
         operator="in"
         result="composite1"
         id="feComposite4950" /><feGaussianBlur
         in="composite1"
         stdDeviation="4"
         result="blur"
         id="feGaussianBlur4952" /><feOffset
         dx="1"
         dy="4"
         result="offset"
         id="feOffset4954" /><feComposite
         in="SourceGraphic"
         in2="offset"
         operator="over"
         result="composite2"
         id="feComposite4956" /></filter><filter
       style="color-interpolation-filters:sRGB"
       inkscape:label="Drop Shadow"
       id="filter4786"><feFlood
         flood-opacity="0.239216"
         flood-color="rgb(0,0,0)"
         result="flood"
         id="feFlood4788" /><feComposite
         in="flood"
         in2="SourceGraphic"
         operator="in"
         result="composite1"
         id="feComposite4790" /><feGaussianBlur
         in="composite1"
         stdDeviation="4"
         result="blur"
         id="feGaussianBlur4792" /><feOffset
         dx="4"
         dy="8"
         result="offset"
         id="feOffset4794" /><feComposite
         in="SourceGraphic"
         in2="offset"
         operator="over"
         result="composite2"
         id="feComposite4796" /></filter></defs><g
     inkscape:groupmode="layer"
     id="layer4"
     inkscape:label="Work"
     style="display:inline"
     transform="translate(0,-160)"><path
       style="fill:#ffffff;fill-opacity:1;stroke:none;stroke-width:4;stroke-miterlimit:4;stroke-dasharray:none;stroke-dashoffset:0;stroke-opacity:1"
       d="M 16 0 A 16 16 0 0 0 0 16 A 16 16 0 0 0 16 32 A 16 16 0 0 0 32 16 A 16 16 0 0 0 16 0 z M 7.3066406 9.5996094 L 21.494141 9.5996094 C 21.996314 9.5996094 22.400391 10.007835 22.400391 10.515625 L 22.400391 12.193359 L 20.412109 12.193359 L 20.412109 11.900391 C 20.412112 11.752711 20.292588 11.634766 20.146484 11.634766 L 18.828125 11.634766 C 18.681997 11.634766 18.566406 11.752521 18.566406 11.900391 L 18.566406 12.193359 L 17.027344 12.193359 L 17.027344 11.900391 C 17.027344 11.752711 16.91174 11.634766 16.765625 11.634766 L 15.447266 11.634766 C 15.301138 11.634766 15.181641 11.752521 15.181641 11.900391 L 15.181641 12.193359 L 13.333984 12.193359 L 13.333984 11.900391 C 13.333984 11.752711 13.218381 11.634766 13.072266 11.634766 L 11.753906 11.634766 C 11.607792 11.634766 11.490234 11.752521 11.490234 11.900391 L 11.490234 12.193359 L 9.9492188 12.193359 L 9.9492188 11.900391 C 9.9492188 11.752711 9.833614 11.634766 9.6875 11.634766 L 8.3691406 11.634766 C 8.2230266 11.634766 8.1035156 11.752521 8.1035156 11.900391 L 8.1035156 13.234375 C 8.1035156 13.382055 8.2230276 13.503906 8.3691406 13.503906 L 8.9648438 13.503906 L 8.9648438 14.744141 L 8.6777344 14.744141 C 8.5316204 14.744141 8.4121094 14.863919 8.4121094 15.011719 L 8.4121094 16.347656 C 8.4121094 16.495496 8.5316214 16.613281 8.6777344 16.613281 L 8.9648438 16.613281 L 8.9648438 20.800781 L 7.3066406 20.800781 C 6.8044672 20.800781 6.4003906 20.392536 6.4003906 19.884766 L 6.4003906 10.515625 C 6.4003906 10.007835 6.8044673 9.5996094 7.3066406 9.5996094 z M 10.505859 12.800781 L 24.693359 12.800781 C 25.195532 12.800781 25.599609 13.207054 25.599609 13.714844 L 25.599609 23.083984 C 25.599609 23.591774 25.195532 24 24.693359 24 L 10.505859 24 C 10.003686 24 9.5996094 23.591774 9.5996094 23.083984 L 9.5996094 13.714844 C 9.5996094 13.207054 10.003686 12.800781 10.505859 12.800781 z M 11.708984 14.978516 C 11.56287 14.978516 11.447266 15.096291 11.447266 15.244141 L 11.447266 16.574219 C 11.447266 16.721899 11.56287 16.84375 11.708984 16.84375 L 13.027344 16.84375 C 13.173456 16.84375 13.292969 16.722009 13.292969 16.574219 L 13.292969 15.244141 C 13.292969 15.096141 13.173449 14.978516 13.027344 14.978516 L 11.708984 14.978516 z M 15.09375 14.978516 C 14.947622 14.978516 14.832031 15.096291 14.832031 15.244141 L 14.832031 16.574219 C 14.832031 16.721899 14.947634 16.84375 15.09375 16.84375 L 16.412109 16.84375 C 16.558237 16.84375 16.675779 16.722009 16.675781 16.574219 L 16.675781 15.244141 C 16.675781 15.096141 16.558226 14.978516 16.412109 14.978516 L 15.09375 14.978516 z M 18.787109 14.978516 C 18.640981 14.978516 18.525393 15.096291 18.525391 15.244141 L 18.525391 16.574219 C 18.525391 16.721899 18.640992 16.84375 18.787109 16.84375 L 20.105469 16.84375 C 20.251597 16.84375 20.369141 16.722009 20.369141 16.574219 L 20.369141 15.244141 C 20.369141 15.096141 20.251585 14.978516 20.105469 14.978516 L 18.787109 14.978516 z M 22.171875 14.978516 C 22.025747 14.978516 21.90625 15.096291 21.90625 15.244141 L 21.90625 16.574219 C 21.90625 16.721899 22.02577 16.84375 22.171875 16.84375 L 23.490234 16.84375 C 23.636362 16.84375 23.753906 16.722009 23.753906 16.574219 L 23.753906 15.244141 C 23.753906 15.096141 23.636349 14.978516 23.490234 14.978516 L 22.171875 14.978516 z M 12.019531 18.089844 C 11.873418 18.089844 11.753906 18.207589 11.753906 18.355469 L 11.753906 19.6875 C 11.753906 19.83534 11.873416 19.957031 12.019531 19.957031 L 13.337891 19.957031 C 13.484019 19.957031 13.599609 19.8353 13.599609 19.6875 L 13.599609 18.355469 C 13.599609 18.207629 13.484006 18.089844 13.337891 18.089844 L 12.019531 18.089844 z M 15.400391 18.089844 C 15.254263 18.089844 15.136719 18.207589 15.136719 18.355469 L 15.136719 19.6875 C 15.136716 19.83534 15.254276 19.957031 15.400391 19.957031 L 16.71875 19.957031 C 16.864878 19.957031 16.984375 19.8353 16.984375 19.6875 L 16.984375 18.355469 C 16.984375 18.207629 16.86487 18.089844 16.71875 18.089844 L 15.400391 18.089844 z M 18.480469 18.089844 C 18.334357 18.089844 18.214844 18.207589 18.214844 18.355469 L 18.214844 19.6875 C 18.214844 19.83534 18.334349 19.957031 18.480469 19.957031 L 19.800781 19.957031 C 19.946909 19.957031 20.0625 19.8353 20.0625 19.6875 L 20.0625 18.355469 C 20.062503 18.207629 19.946896 18.089844 19.800781 18.089844 L 18.480469 18.089844 z M 21.863281 18.089844 C 21.717153 18.089844 21.599609 18.207589 21.599609 18.355469 L 21.599609 19.6875 C 21.599609 19.83534 21.717166 19.957031 21.863281 19.957031 L 23.181641 19.957031 C 23.327769 19.957031 23.447266 19.8353 23.447266 19.6875 L 23.447266 18.355469 C 23.447266 18.207629 23.327746 18.089844 23.181641 18.089844 L 21.863281 18.089844 z M 13.292969 21.199219 C 13.122497 21.199219 12.984375 21.337346 12.984375 21.509766 L 12.984375 22.443359 C 12.984375 22.615799 13.122505 22.755859 13.292969 22.755859 L 21.90625 22.755859 C 22.076701 22.755859 22.214844 22.615719 22.214844 22.443359 L 22.214844 21.509766 C 22.214844 21.337316 22.076714 21.199219 21.90625 21.199219 L 13.292969 21.199219 z "
       transform="translate(0,160)"
       id="path4717" /></g></svg>