<?xml version="1.0" encoding="UTF-8" standalone="no"?>
<!-- Created with Inkscape (http://www.inkscape.org/) -->

<svg
   xmlns:dc="http://purl.org/dc/elements/1.1/"
   xmlns:cc="http://creativecommons.org/ns#"
   xmlns:rdf="http://www.w3.org/1999/02/22-rdf-syntax-ns#"
   xmlns:svg="http://www.w3.org/2000/svg"
   xmlns="http://www.w3.org/2000/svg"
   xmlns:sodipodi="http://sodipodi.sourceforge.net/DTD/sodipodi-0.dtd"
   xmlns:inkscape="http://www.inkscape.org/namespaces/inkscape"
   inkscape:export-ydpi="22.5"
   inkscape:export-xdpi="22.5"
   inkscape:export-filename="/home/joker/Projects/Kunzisoft/Inkscape/Android Icon Template_low"
   id="svg2"
   version="1.1"
   inkscape:version="0.92.3 (2405546, 2018-03-11)"
   xml:space="preserve"
   width="24"
   height="24"
   viewBox="0 0 24 24"
   sodipodi:docname="ic_floating_button_notification.svg"><sodipodi:namedview
     pagecolor="#d7d7d7"
     bordercolor="#666666"
     borderopacity="1"
     objecttolerance="10"
     gridtolerance="10"
     guidetolerance="10"
     inkscape:pageopacity="0"
     inkscape:pageshadow="2"
     inkscape:window-width="1920"
     inkscape:window-height="1025"
     id="namedview4"
     showgrid="true"
     inkscape:zoom="16.000001"
     inkscape:cx="1.2577637"
     inkscape:cy="13.634705"
     inkscape:window-x="1920"
     inkscape:window-y="70"
     inkscape:window-maximized="1"
     inkscape:current-layer="layer4"
     showguides="false"><inkscape:grid
       id="grid4646"
       type="xygrid"
       empspacing="4"
       dotted="false" /></sodipodi:namedview><metadata
     id="metadata8"><rdf:RDF><cc:Work
         rdf:about=""><dc:format>image/svg+xml</dc:format><dc:type
           rdf:resource="http://purl.org/dc/dcmitype/StillImage" /><dc:title /></cc:Work></rdf:RDF></metadata><defs
     id="defs6"><marker
       inkscape:stockid="Arrow1Mstart"
       orient="auto"
       refY="0"
       refX="0"
       id="marker11240"
       style="overflow:visible"
       inkscape:isstock="true"><path
         id="path11242"
         d="M 0,0 5,-5 -12.5,0 5,5 0,0 Z"
         style="fill:#000000;fill-opacity:1;fill-rule:evenodd;stroke:#000000;stroke-width:1pt;stroke-opacity:1"
         transform="matrix(0.4,0,0,0.4,4,0)"
         inkscape:connector-curvature="0" /></marker><marker
       inkscape:stockid="Arrow1Mend"
       orient="auto"
       refY="0"
       refX="0"
       id="Arrow1Mend"
       style="overflow:visible"
       inkscape:isstock="true"><path
         id="path10431"
         d="M 0,0 5,-5 -12.5,0 5,5 0,0 Z"
         style="fill:#000000;fill-opacity:1;fill-rule:evenodd;stroke:#000000;stroke-width:1pt;stroke-opacity:1"
         transform="matrix(-0.4,0,0,-0.4,-4,0)"
         inkscape:connector-curvature="0" /></marker><marker
       inkscape:stockid="Arrow1Mstart"
       orient="auto"
       refY="0"
       refX="0"
       id="marker11224"
       style="overflow:visible"
       inkscape:isstock="true"><path
         id="path11226"
         d="M 0,0 5,-5 -12.5,0 5,5 0,0 Z"
         style="fill:#000000;fill-opacity:1;fill-rule:evenodd;stroke:#000000;stroke-width:1pt;stroke-opacity:1"
         transform="matrix(0.4,0,0,0.4,4,0)"
         inkscape:connector-curvature="0" /></marker><marker
       inkscape:stockid="Arrow1Mstart"
       orient="auto"
       refY="0"
       refX="0"
       id="marker11098"
       style="overflow:visible"
       inkscape:isstock="true"><path
         id="path11100"
         d="M 0,0 5,-5 -12.5,0 5,5 0,0 Z"
         style="fill:#000000;fill-opacity:1;fill-rule:evenodd;stroke:#000000;stroke-width:1pt;stroke-opacity:1"
         transform="matrix(0.4,0,0,0.4,4,0)"
         inkscape:connector-curvature="0" /></marker><marker
       inkscape:stockid="Arrow1Mstart"
       orient="auto"
       refY="0"
       refX="0"
       id="marker10904"
       style="overflow:visible"
       inkscape:isstock="true"><path
         id="path10906"
         d="M 0,0 5,-5 -12.5,0 5,5 0,0 Z"
         style="fill:#000000;fill-opacity:1;fill-rule:evenodd;stroke:#000000;stroke-width:1pt;stroke-opacity:1"
         transform="matrix(0.4,0,0,0.4,4,0)"
         inkscape:connector-curvature="0" /></marker><marker
       inkscape:stockid="Arrow1Mstart"
       orient="auto"
       refY="0"
       refX="0"
       id="marker10888"
       style="overflow:visible"
       inkscape:isstock="true"><path
         id="path10890"
         d="M 0,0 5,-5 -12.5,0 5,5 0,0 Z"
         style="fill:#000000;fill-opacity:1;fill-rule:evenodd;stroke:#000000;stroke-width:1pt;stroke-opacity:1"
         transform="matrix(0.4,0,0,0.4,4,0)"
         inkscape:connector-curvature="0" /></marker><marker
       inkscape:stockid="Arrow1Mstart"
       orient="auto"
       refY="0"
       refX="0"
       id="marker10882"
       style="overflow:visible"
       inkscape:isstock="true"><path
         id="path10884"
         d="M 0,0 5,-5 -12.5,0 5,5 0,0 Z"
         style="fill:#000000;fill-opacity:1;fill-rule:evenodd;stroke:#000000;stroke-width:1pt;stroke-opacity:1"
         transform="matrix(0.4,0,0,0.4,4,0)"
         inkscape:connector-curvature="0" /></marker><marker
       inkscape:isstock="true"
       style="overflow:visible"
       id="marker10851"
       refX="0"
       refY="0"
       orient="auto"
       inkscape:stockid="Arrow1Mstart"><path
         transform="matrix(0.4,0,0,0.4,4,0)"
         style="fill:#000000;fill-opacity:1;fill-rule:evenodd;stroke:#000000;stroke-width:1pt;stroke-opacity:1"
         d="M 0,0 5,-5 -12.5,0 5,5 0,0 Z"
         id="path10853"
         inkscape:connector-curvature="0" /></marker><marker
       inkscape:stockid="Arrow1Mstart"
       orient="auto"
       refY="0"
       refX="0"
       id="Arrow1Mstart"
       style="overflow:visible"
       inkscape:isstock="true"><path
         id="path10428"
         d="M 0,0 5,-5 -12.5,0 5,5 0,0 Z"
         style="fill:#000000;fill-opacity:1;fill-rule:evenodd;stroke:#000000;stroke-width:1pt;stroke-opacity:1"
         transform="matrix(0.4,0,0,0.4,4,0)"
         inkscape:connector-curvature="0" /></marker><marker
       inkscape:stockid="Arrow2Lstart"
       orient="auto"
       refY="0"
       refX="0"
       id="marker10769"
       style="overflow:visible"
       inkscape:isstock="true"><path
         id="path10771"
         style="fill:#000000;fill-opacity:1;fill-rule:evenodd;stroke:#000000;stroke-width:0.625;stroke-linejoin:round;stroke-opacity:1"
         d="M 8.7185878,4.0337352 -2.2072895,0.01601326 8.7185884,-4.0017078 c -1.7454984,2.3720609 -1.7354408,5.6174519 -6e-7,8.035443 z"
         transform="matrix(1.1,0,0,1.1,1.1,0)"
         inkscape:connector-curvature="0" /></marker><marker
       inkscape:stockid="Arrow2Mstart"
       orient="auto"
       refY="0"
       refX="0"
       id="Arrow2Mstart"
       style="overflow:visible"
       inkscape:isstock="true"><path
         id="path10446"
         style="fill:#000000;fill-opacity:1;fill-rule:evenodd;stroke:#000000;stroke-width:0.625;stroke-linejoin:round;stroke-opacity:1"
         d="M 8.7185878,4.0337352 -2.2072895,0.01601326 8.7185884,-4.0017078 c -1.7454984,2.3720609 -1.7354408,5.6174519 -6e-7,8.035443 z"
         transform="scale(0.6,0.6)"
         inkscape:connector-curvature="0" /></marker><marker
       inkscape:stockid="Arrow1Sstart"
       orient="auto"
       refY="0"
       refX="0"
       id="Arrow1Sstart"
       style="overflow:visible"
       inkscape:isstock="true"><path
         id="path10434"
         d="M 0,0 5,-5 -12.5,0 5,5 0,0 Z"
         style="fill:#000000;fill-opacity:1;fill-rule:evenodd;stroke:#000000;stroke-width:1pt;stroke-opacity:1"
         transform="matrix(0.2,0,0,0.2,1.2,0)"
         inkscape:connector-curvature="0" /></marker><marker
       inkscape:stockid="Arrow2Lstart"
       orient="auto"
       refY="0"
       refX="0"
       id="Arrow2Lstart"
       style="overflow:visible"
       inkscape:isstock="true"><path
         id="path10440"
         style="fill:#000000;fill-opacity:1;fill-rule:evenodd;stroke:#000000;stroke-width:0.625;stroke-linejoin:round;stroke-opacity:1"
         d="M 8.7185878,4.0337352 -2.2072895,0.01601326 8.7185884,-4.0017078 c -1.7454984,2.3720609 -1.7354408,5.6174519 -6e-7,8.035443 z"
         transform="matrix(1.1,0,0,1.1,1.1,0)"
         inkscape:connector-curvature="0" /></marker><marker
       inkscape:stockid="Arrow1Lstart"
       orient="auto"
       refY="0"
       refX="0"
       id="Arrow1Lstart"
       style="overflow:visible"
       inkscape:isstock="true"><path
         id="path10422"
         d="M 0,0 5,-5 -12.5,0 5,5 0,0 Z"
         style="fill:#000000;fill-opacity:1;fill-rule:evenodd;stroke:#000000;stroke-width:1pt;stroke-opacity:1"
         transform="matrix(0.8,0,0,0.8,10,0)"
         inkscape:connector-curvature="0" /></marker><clipPath
       id="clipPath16"
       clipPathUnits="userSpaceOnUse"><path
         inkscape:connector-curvature="0"
         id="path18"
         d="M 0,192 192,192 192,0 0,0 0,192 Z" /></clipPath><clipPath
       id="clipPath26"
       clipPathUnits="userSpaceOnUse"><path
         inkscape:connector-curvature="0"
         id="path28"
         d="M -4.88281e-4,192 192,192 192,-4.88281e-4 l -192.000488281,0 0,192.000488281 z" /></clipPath><clipPath
       id="clipPath34"
       clipPathUnits="userSpaceOnUse"><path
         inkscape:connector-curvature="0"
         id="path36"
         d="M -4.88281e-4,192 192,192 192,-4.88281e-4 l -192.000488281,0 0,192.000488281 z" /></clipPath><clipPath
       id="clipPath38"
       clipPathUnits="userSpaceOnUse"><path
         inkscape:connector-curvature="0"
         id="path40"
         d="M 0,192 192,192 192,0 0,0 0,192 Z" /></clipPath><clipPath
       id="clipPath42"
       clipPathUnits="userSpaceOnUse"><path
         inkscape:connector-curvature="0"
         id="path44"
         d="M 0,192 192,192 192,0 0,0 0,192 Z" /></clipPath><clipPath
       id="clipPath116"
       clipPathUnits="userSpaceOnUse"><path
         inkscape:connector-curvature="0"
         id="path118"
         d="m 0,192 192,0 0,-192.000488281 -192,0 L 0,192 Z" /></clipPath><clipPath
       id="clipPath120"
       clipPathUnits="userSpaceOnUse"><path
         inkscape:connector-curvature="0"
         id="path122"
         d="m 0,192 192,0 0,-191.999511719 -192,0 L 0,192 Z" /></clipPath><clipPath
       id="clipPath124"
       clipPathUnits="userSpaceOnUse"><path
         inkscape:connector-curvature="0"
         id="path126"
         d="M 192,192 0,192 0,0 l 192,0 0,192 z" /></clipPath><filter
       style="color-interpolation-filters:sRGB"
       inkscape:label="Drop Shadow"
       id="filter10356"><feFlood
         flood-opacity="0.196078"
         flood-color="rgb(0,0,0)"
         result="flood"
         id="feFlood10358" /><feComposite
         in="flood"
         in2="SourceGraphic"
         operator="in"
         result="composite1"
         id="feComposite10360" /><feGaussianBlur
         in="composite1"
         stdDeviation="4"
         result="blur"
         id="feGaussianBlur10362" /><feOffset
         dx="4"
         dy="4"
         result="offset"
         id="feOffset10364" /><feComposite
         in="SourceGraphic"
         in2="offset"
         operator="over"
         result="composite2"
         id="feComposite10366" /></filter><marker
       inkscape:stockid="Arrow1Sstart"
       orient="auto"
       refY="0"
       refX="0"
       id="Arrow1Sstart-3"
       style="overflow:visible"
       inkscape:isstock="true"><path
         inkscape:connector-curvature="0"
         id="path10434-6"
         d="M 0,0 5,-5 -12.5,0 5,5 0,0 Z"
         style="fill:#000000;fill-opacity:1;fill-rule:evenodd;stroke:#000000;stroke-width:1pt;stroke-opacity:1"
         transform="matrix(0.2,0,0,0.2,1.2,0)" /></marker><marker
       inkscape:stockid="Arrow1Sstart"
       orient="auto"
       refY="0"
       refX="0"
       id="Arrow1Sstart-3-7"
       style="overflow:visible"
       inkscape:isstock="true"><path
         inkscape:connector-curvature="0"
         id="path10434-6-5"
         d="M 0,0 5,-5 -12.5,0 5,5 0,0 Z"
         style="fill:#000000;fill-opacity:1;fill-rule:evenodd;stroke:#000000;stroke-width:1pt;stroke-opacity:1"
         transform="matrix(0.2,0,0,0.2,1.2,0)" /></marker><marker
       inkscape:stockid="Arrow2Mstart"
       orient="auto"
       refY="0"
       refX="0"
       id="Arrow2Mstart-3"
       style="overflow:visible"
       inkscape:isstock="true"><path
         inkscape:connector-curvature="0"
         id="path10446-5"
         style="fill:#000000;fill-opacity:1;fill-rule:evenodd;stroke:#000000;stroke-width:0.625;stroke-linejoin:round;stroke-opacity:1"
         d="M 8.7185878,4.0337352 -2.2072895,0.01601326 8.7185884,-4.0017078 c -1.7454984,2.3720609 -1.7354408,5.6174519 -6e-7,8.035443 z"
         transform="scale(0.6,0.6)" /></marker><filter
       id="filter6016"
       inkscape:label="Drop Shadow"
       style="color-interpolation-filters:sRGB"><feFlood
         id="feFlood6018"
         result="flood"
         flood-color="rgb(0,0,0)"
         flood-opacity="0.239216" /><feComposite
         id="feComposite6020"
         result="composite1"
         operator="in"
         in2="SourceGraphic"
         in="flood" /><feGaussianBlur
         id="feGaussianBlur6022"
         result="blur"
         stdDeviation="2"
         in="composite1" /><feOffset
         id="feOffset6024"
         result="offset"
         dy="4"
         dx="0" /><feComposite
         id="feComposite6026"
         result="fbSourceGraphic"
         operator="over"
         in2="offset"
         in="SourceGraphic" /><feColorMatrix
         id="feColorMatrix6028"
         values="0 0 0 -1 0 0 0 0 -1 0 0 0 0 -1 0 0 0 0 1 0"
         in="fbSourceGraphic"
         result="fbSourceGraphicAlpha" /><feFlood
         in="fbSourceGraphic"
         result="flood"
         flood-color="rgb(0,0,0)"
         flood-opacity="0.121569"
         id="feFlood6030" /><feComposite
         result="composite1"
         operator="in"
         in="flood"
         in2="fbSourceGraphic"
         id="feComposite6032" /><feGaussianBlur
         result="blur"
         stdDeviation="2"
         in="composite1"
         id="feGaussianBlur6034" /><feOffset
         result="offset"
         dy="0"
         dx="0"
         id="feOffset6036" /><feComposite
         result="composite2"
         operator="over"
         in="fbSourceGraphic"
         in2="offset"
         id="feComposite6038" /></filter><filter
       id="filter6045"
       inkscape:label="Drop Shadow"
       style="color-interpolation-filters:sRGB"><feFlood
         id="feFlood6047"
         result="flood"
         flood-color="rgb(0,0,0)"
         flood-opacity="0.2" /><feComposite
         id="feComposite6049"
         result="composite1"
         operator="in"
         in2="SourceGraphic"
         in="flood" /><feGaussianBlur
         id="feGaussianBlur6051"
         result="blur"
         stdDeviation="4"
         in="composite1" /><feOffset
         id="feOffset6053"
         result="offset"
         dy="4"
         dx="0" /><feComposite
         id="feComposite6055"
         result="composite2"
         operator="over"
         in2="offset"
         in="SourceGraphic" /></filter><filter
       id="filter6016-3"
       inkscape:label="Drop Shadow"
       style="color-interpolation-filters:sRGB"><feFlood
         id="feFlood6018-5"
         result="flood"
         flood-color="rgb(0,0,0)"
         flood-opacity="0.239216" /><feComposite
         id="feComposite6020-6"
         result="composite1"
         operator="in"
         in2="SourceGraphic"
         in="flood" /><feGaussianBlur
         id="feGaussianBlur6022-2"
         result="blur"
         stdDeviation="2"
         in="composite1" /><feOffset
         id="feOffset6024-9"
         result="offset"
         dy="4"
         dx="0" /><feComposite
         id="feComposite6026-1"
         result="fbSourceGraphic"
         operator="over"
         in2="offset"
         in="SourceGraphic" /><feColorMatrix
         id="feColorMatrix6028-2"
         values="0 0 0 -1 0 0 0 0 -1 0 0 0 0 -1 0 0 0 0 1 0"
         in="fbSourceGraphic"
         result="fbSourceGraphicAlpha" /><feFlood
         in="fbSourceGraphic"
         result="flood"
         flood-color="rgb(0,0,0)"
         flood-opacity="0.121569"
         id="feFlood6030-7" /><feComposite
         result="composite1"
         operator="in"
         in="flood"
         in2="fbSourceGraphic"
         id="feComposite6032-0" /><feGaussianBlur
         result="blur"
         stdDeviation="2"
         in="composite1"
         id="feGaussianBlur6034-9" /><feOffset
         result="offset"
         dy="0"
         dx="0"
         id="feOffset6036-3" /><feComposite
         result="composite2"
         operator="over"
         in="fbSourceGraphic"
         in2="offset"
         id="feComposite6038-6" /></filter><filter
       id="filter4884"
       inkscape:label="Drop Shadow"
       style="color-interpolation-filters:sRGB"><feFlood
         id="feFlood4886"
         result="flood"
         flood-color="rgb(0,0,0)"
         flood-opacity="0.2" /><feComposite
         id="feComposite4888"
         result="composite1"
         operator="in"
         in2="SourceGraphic"
         in="flood" /><feGaussianBlur
         id="feGaussianBlur4890"
         result="blur"
         stdDeviation="4"
         in="composite1" /><feOffset
         id="feOffset4892"
         result="offset"
         dy="4"
         dx="0" /><feComposite
         id="feComposite4894"
         result="composite2"
         operator="over"
         in2="offset"
         in="SourceGraphic" /></filter><filter
       style="color-interpolation-filters:sRGB"
       inkscape:label="Drop Shadow"
       id="filter8967"><feFlood
         flood-opacity="0.2"
         flood-color="rgb(0,0,0)"
         result="flood"
         id="feFlood8969" /><feComposite
         in="flood"
         in2="SourceGraphic"
         operator="in"
         result="composite1"
         id="feComposite8971" /><feGaussianBlur
         in="composite1"
         stdDeviation="4"
         result="blur"
         id="feGaussianBlur8973" /><feOffset
         dx="0"
         dy="4"
         result="offset"
         id="feOffset8975" /><feComposite
         in="SourceGraphic"
         in2="offset"
         operator="over"
         result="composite2"
         id="feComposite8977" /></filter><filter
       style="color-interpolation-filters:sRGB"
       inkscape:label="Drop Shadow"
       id="filter4946"><feFlood
         flood-opacity="0.2"
         flood-color="rgb(0,0,0)"
         result="flood"
         id="feFlood4948" /><feComposite
         in="flood"
         in2="SourceGraphic"
         operator="in"
         result="composite1"
         id="feComposite4950" /><feGaussianBlur
         in="composite1"
         stdDeviation="4"
         result="blur"
         id="feGaussianBlur4952" /><feOffset
         dx="1"
         dy="4"
         result="offset"
         id="feOffset4954" /><feComposite
         in="SourceGraphic"
         in2="offset"
         operator="over"
         result="composite2"
         id="feComposite4956" /></filter><filter
       style="color-interpolation-filters:sRGB"
       inkscape:label="Drop Shadow"
       id="filter4786"><feFlood
         flood-opacity="0.239216"
         flood-color="rgb(0,0,0)"
         result="flood"
         id="feFlood4788" /><feComposite
         in="flood"
         in2="SourceGraphic"
         operator="in"
         result="composite1"
         id="feComposite4790" /><feGaussianBlur
         in="composite1"
         stdDeviation="4"
         result="blur"
         id="feGaussianBlur4792" /><feOffset
         dx="4"
         dy="8"
         result="offset"
         id="feOffset4794" /><feComposite
         in="SourceGraphic"
         in2="offset"
         operator="over"
         result="composite2"
         id="feComposite4796" /></filter></defs><g
     inkscape:groupmode="layer"
     id="layer4"
     inkscape:label="Work"
     style="display:inline"
     transform="translate(0,-168)"><path
       style="fill:#ffffff;fill-opacity:1;stroke:none;stroke-width:0.9774369;stroke-miterlimit:4;stroke-dasharray:3.90974743, 1.95487371;stroke-dashoffset:0;stroke-opacity:1"
       d="M 12 2 A 10 10 0 0 0 2 12 A 10 10 0 0 0 12 22 A 10 10 0 0 0 22 12 A 10 10 0 0 0 12 2 z M 6.5664062 8 L 15.433594 8 C 15.747452 8 16 8.2548956 16 8.5722656 L 16 9.6210938 L 14.757812 9.6210938 L 14.757812 9.4375 C 14.757814 9.34516 14.683117 9.2714844 14.591797 9.2714844 L 13.767578 9.2714844 C 13.676249 9.2714844 13.603516 9.3451 13.603516 9.4375 L 13.603516 9.6210938 L 12.642578 9.6210938 L 12.642578 9.4375 C 12.642578 9.34516 12.569836 9.2714844 12.478516 9.2714844 L 11.654297 9.2714844 C 11.562968 9.2714844 11.488281 9.3451 11.488281 9.4375 L 11.488281 9.6210938 L 10.333984 9.6210938 L 10.333984 9.4375 C 10.333984 9.34516 10.261242 9.2714844 10.169922 9.2714844 L 9.3457031 9.2714844 C 9.2543819 9.2714844 9.1816406 9.3451 9.1816406 9.4375 L 9.1816406 9.6210938 L 8.21875 9.6210938 L 8.21875 9.4375 C 8.21875 9.34516 8.1460085 9.2714844 8.0546875 9.2714844 L 7.2304688 9.2714844 C 7.1391474 9.2714844 7.0644531 9.3451 7.0644531 9.4375 L 7.0644531 10.271484 C 7.0644531 10.363804 7.1391478 10.439453 7.2304688 10.439453 L 7.6035156 10.439453 L 7.6035156 11.214844 L 7.4238281 11.214844 C 7.3325072 11.214844 7.2578125 11.290413 7.2578125 11.382812 L 7.2578125 12.216797 C 7.2578124 12.309217 7.3325071 12.382812 7.4238281 12.382812 L 7.6035156 12.382812 L 7.6035156 15 L 6.5664062 15 C 6.2525478 15 6 14.745094 6 14.427734 L 6 8.5722656 C 6 8.2548956 6.2525479 8 6.5664062 8 z M 8.5664062 10 L 17.433594 10 C 17.747452 10 18 10.254896 18 10.572266 L 18 16.427734 C 18 16.745104 17.747452 17 17.433594 17 L 8.5664062 17 C 8.252548 17 8 16.745104 8 16.427734 L 8 10.572266 C 8 10.254896 8.2525481 10 8.5664062 10 z M 9.3183594 11.361328 C 9.2270381 11.361328 9.1542969 11.434944 9.1542969 11.527344 L 9.1542969 12.359375 C 9.1542969 12.451725 9.2270384 12.527344 9.3183594 12.527344 L 10.142578 12.527344 C 10.233899 12.527344 10.308594 12.451775 10.308594 12.359375 L 10.308594 11.527344 C 10.308594 11.434894 10.233898 11.361328 10.142578 11.361328 L 9.3183594 11.361328 z M 11.433594 11.361328 C 11.342265 11.361328 11.269531 11.434944 11.269531 11.527344 L 11.269531 12.359375 C 11.269531 12.451725 11.342274 12.527344 11.433594 12.527344 L 12.257812 12.527344 C 12.349142 12.527344 12.421874 12.451775 12.421875 12.359375 L 12.421875 11.527344 C 12.421875 11.434894 12.349133 11.361328 12.257812 11.361328 L 11.433594 11.361328 z M 13.742188 11.361328 C 13.650858 11.361328 13.578126 11.434944 13.578125 11.527344 L 13.578125 12.359375 C 13.578125 12.451725 13.650867 12.527344 13.742188 12.527344 L 14.566406 12.527344 C 14.657735 12.527344 14.730469 12.451775 14.730469 12.359375 L 14.730469 11.527344 C 14.730469 11.434894 14.657726 11.361328 14.566406 11.361328 L 13.742188 11.361328 z M 15.857422 11.361328 C 15.766094 11.361328 15.691406 11.434944 15.691406 11.527344 L 15.691406 12.359375 C 15.691406 12.451725 15.766102 12.527344 15.857422 12.527344 L 16.681641 12.527344 C 16.772973 12.527344 16.845703 12.451775 16.845703 12.359375 L 16.845703 11.527344 C 16.845703 11.434894 16.772961 11.361328 16.681641 11.361328 L 15.857422 11.361328 z M 9.5117188 13.306641 C 9.4203977 13.306641 9.3457031 13.380256 9.3457031 13.472656 L 9.3457031 14.304688 C 9.3457031 14.397117 9.4203976 14.472656 9.5117188 14.472656 L 10.335938 14.472656 C 10.427264 14.472656 10.5 14.397087 10.5 14.304688 L 10.5 13.472656 C 10.5 13.380206 10.427257 13.306641 10.335938 13.306641 L 9.5117188 13.306641 z M 11.625 13.306641 C 11.533671 13.306641 11.460938 13.380256 11.460938 13.472656 L 11.460938 14.304688 C 11.460936 14.397117 11.53368 14.472656 11.625 14.472656 L 12.449219 14.472656 C 12.54055 14.472656 12.615234 14.397087 12.615234 14.304688 L 12.615234 13.472656 C 12.615234 13.380206 12.540539 13.306641 12.449219 13.306641 L 11.625 13.306641 z M 13.550781 13.306641 C 13.459459 13.306641 13.384766 13.380256 13.384766 13.472656 L 13.384766 14.304688 C 13.384766 14.397117 13.459461 14.472656 13.550781 14.472656 L 14.375 14.472656 C 14.466329 14.472656 14.539062 14.397087 14.539062 14.304688 L 14.539062 13.472656 C 14.539064 13.380206 14.46632 13.306641 14.375 13.306641 L 13.550781 13.306641 z M 15.664062 13.306641 C 15.572736 13.306641 15.5 13.380256 15.5 13.472656 L 15.5 14.304688 C 15.5 14.397117 15.572743 14.472656 15.664062 14.472656 L 16.488281 14.472656 C 16.57961 14.472656 16.654297 14.397087 16.654297 14.304688 L 16.654297 13.472656 C 16.654297 13.380206 16.579601 13.306641 16.488281 13.306641 L 15.664062 13.306641 z M 10.308594 15.25 C 10.202049 15.25 10.115234 15.335619 10.115234 15.443359 L 10.115234 16.027344 C 10.115234 16.135114 10.202054 16.222656 10.308594 16.222656 L 15.691406 16.222656 C 15.797938 16.222656 15.884766 16.135074 15.884766 16.027344 L 15.884766 15.443359 C 15.884766 15.335579 15.797948 15.25 15.691406 15.25 L 10.308594 15.25 z "
       transform="translate(0,168)"
       id="path1027" /></g></svg>