<?xml version="1.0" encoding="UTF-8" standalone="no"?>
<!-- Created with Inkscape (http://www.inkscape.org/) -->

<svg
   xmlns:dc="http://purl.org/dc/elements/1.1/"
   xmlns:cc="http://creativecommons.org/ns#"
   xmlns:rdf="http://www.w3.org/1999/02/22-rdf-syntax-ns#"
   xmlns:svg="http://www.w3.org/2000/svg"
   xmlns="http://www.w3.org/2000/svg"
   xmlns:sodipodi="http://sodipodi.sourceforge.net/DTD/sodipodi-0.dtd"
   xmlns:inkscape="http://www.inkscape.org/namespaces/inkscape"
   inkscape:export-ydpi="22.5"
   inkscape:export-xdpi="22.5"
   inkscape:export-filename="/home/joker/Projects/Kunzisoft/Inkscape/Android Icon Template_low"
   id="svg2"
   version="1.1"
   inkscape:version="0.91 r13725"
   xml:space="preserve"
   width="24"
   height="24"
   viewBox="0 0 24 24"
   sodipodi:docname="ic_notification.svg"><sodipodi:namedview
     pagecolor="#d7d7d7"
     bordercolor="#666666"
     borderopacity="1"
     objecttolerance="10"
     gridtolerance="10"
     guidetolerance="10"
     inkscape:pageopacity="0"
     inkscape:pageshadow="2"
     inkscape:window-width="1920"
     inkscape:window-height="1023"
     id="namedview4"
     showgrid="false"
     inkscape:zoom="11.313709"
     inkscape:cx="26.727747"
     inkscape:cy="11.899778"
     inkscape:window-x="0"
     inkscape:window-y="27"
     inkscape:window-maximized="1"
     inkscape:current-layer="layer4"
     showguides="false"><inkscape:grid
       id="grid4646"
       type="xygrid"
       empspacing="4" /></sodipodi:namedview><metadata
     id="metadata8"><rdf:RDF><cc:Work
         rdf:about=""><dc:format>image/svg+xml</dc:format><dc:type
           rdf:resource="http://purl.org/dc/dcmitype/StillImage" /><dc:title></dc:title></cc:Work></rdf:RDF></metadata><defs
     id="defs6"><marker
       inkscape:stockid="Arrow1Mstart"
       orient="auto"
       refY="0"
       refX="0"
       id="marker11240"
       style="overflow:visible"
       inkscape:isstock="true"><path
         id="path11242"
         d="M 0,0 5,-5 -12.5,0 5,5 0,0 Z"
         style="fill:#000000;fill-opacity:1;fill-rule:evenodd;stroke:#000000;stroke-width:1pt;stroke-opacity:1"
         transform="matrix(0.4,0,0,0.4,4,0)"
         inkscape:connector-curvature="0" /></marker><marker
       inkscape:stockid="Arrow1Mend"
       orient="auto"
       refY="0"
       refX="0"
       id="Arrow1Mend"
       style="overflow:visible"
       inkscape:isstock="true"><path
         id="path10431"
         d="M 0,0 5,-5 -12.5,0 5,5 0,0 Z"
         style="fill:#000000;fill-opacity:1;fill-rule:evenodd;stroke:#000000;stroke-width:1pt;stroke-opacity:1"
         transform="matrix(-0.4,0,0,-0.4,-4,0)"
         inkscape:connector-curvature="0" /></marker><marker
       inkscape:stockid="Arrow1Mstart"
       orient="auto"
       refY="0"
       refX="0"
       id="marker11224"
       style="overflow:visible"
       inkscape:isstock="true"><path
         id="path11226"
         d="M 0,0 5,-5 -12.5,0 5,5 0,0 Z"
         style="fill:#000000;fill-opacity:1;fill-rule:evenodd;stroke:#000000;stroke-width:1pt;stroke-opacity:1"
         transform="matrix(0.4,0,0,0.4,4,0)"
         inkscape:connector-curvature="0" /></marker><marker
       inkscape:stockid="Arrow1Mstart"
       orient="auto"
       refY="0"
       refX="0"
       id="marker11098"
       style="overflow:visible"
       inkscape:isstock="true"><path
         id="path11100"
         d="M 0,0 5,-5 -12.5,0 5,5 0,0 Z"
         style="fill:#000000;fill-opacity:1;fill-rule:evenodd;stroke:#000000;stroke-width:1pt;stroke-opacity:1"
         transform="matrix(0.4,0,0,0.4,4,0)"
         inkscape:connector-curvature="0" /></marker><marker
       inkscape:stockid="Arrow1Mstart"
       orient="auto"
       refY="0"
       refX="0"
       id="marker10904"
       style="overflow:visible"
       inkscape:isstock="true"><path
         id="path10906"
         d="M 0,0 5,-5 -12.5,0 5,5 0,0 Z"
         style="fill:#000000;fill-opacity:1;fill-rule:evenodd;stroke:#000000;stroke-width:1pt;stroke-opacity:1"
         transform="matrix(0.4,0,0,0.4,4,0)"
         inkscape:connector-curvature="0" /></marker><marker
       inkscape:stockid="Arrow1Mstart"
       orient="auto"
       refY="0"
       refX="0"
       id="marker10888"
       style="overflow:visible"
       inkscape:isstock="true"><path
         id="path10890"
         d="M 0,0 5,-5 -12.5,0 5,5 0,0 Z"
         style="fill:#000000;fill-opacity:1;fill-rule:evenodd;stroke:#000000;stroke-width:1pt;stroke-opacity:1"
         transform="matrix(0.4,0,0,0.4,4,0)"
         inkscape:connector-curvature="0" /></marker><marker
       inkscape:stockid="Arrow1Mstart"
       orient="auto"
       refY="0"
       refX="0"
       id="marker10882"
       style="overflow:visible"
       inkscape:isstock="true"><path
         id="path10884"
         d="M 0,0 5,-5 -12.5,0 5,5 0,0 Z"
         style="fill:#000000;fill-opacity:1;fill-rule:evenodd;stroke:#000000;stroke-width:1pt;stroke-opacity:1"
         transform="matrix(0.4,0,0,0.4,4,0)"
         inkscape:connector-curvature="0" /></marker><marker
       inkscape:isstock="true"
       style="overflow:visible"
       id="marker10851"
       refX="0"
       refY="0"
       orient="auto"
       inkscape:stockid="Arrow1Mstart"><path
         transform="matrix(0.4,0,0,0.4,4,0)"
         style="fill:#000000;fill-opacity:1;fill-rule:evenodd;stroke:#000000;stroke-width:1pt;stroke-opacity:1"
         d="M 0,0 5,-5 -12.5,0 5,5 0,0 Z"
         id="path10853"
         inkscape:connector-curvature="0" /></marker><marker
       inkscape:stockid="Arrow1Mstart"
       orient="auto"
       refY="0"
       refX="0"
       id="Arrow1Mstart"
       style="overflow:visible"
       inkscape:isstock="true"><path
         id="path10428"
         d="M 0,0 5,-5 -12.5,0 5,5 0,0 Z"
         style="fill:#000000;fill-opacity:1;fill-rule:evenodd;stroke:#000000;stroke-width:1pt;stroke-opacity:1"
         transform="matrix(0.4,0,0,0.4,4,0)"
         inkscape:connector-curvature="0" /></marker><marker
       inkscape:stockid="Arrow2Lstart"
       orient="auto"
       refY="0"
       refX="0"
       id="marker10769"
       style="overflow:visible"
       inkscape:isstock="true"><path
         id="path10771"
         style="fill:#000000;fill-opacity:1;fill-rule:evenodd;stroke:#000000;stroke-width:0.625;stroke-linejoin:round;stroke-opacity:1"
         d="M 8.7185878,4.0337352 -2.2072895,0.01601326 8.7185884,-4.0017078 c -1.7454984,2.3720609 -1.7354408,5.6174519 -6e-7,8.035443 z"
         transform="matrix(1.1,0,0,1.1,1.1,0)"
         inkscape:connector-curvature="0" /></marker><marker
       inkscape:stockid="Arrow2Mstart"
       orient="auto"
       refY="0"
       refX="0"
       id="Arrow2Mstart"
       style="overflow:visible"
       inkscape:isstock="true"><path
         id="path10446"
         style="fill:#000000;fill-opacity:1;fill-rule:evenodd;stroke:#000000;stroke-width:0.625;stroke-linejoin:round;stroke-opacity:1"
         d="M 8.7185878,4.0337352 -2.2072895,0.01601326 8.7185884,-4.0017078 c -1.7454984,2.3720609 -1.7354408,5.6174519 -6e-7,8.035443 z"
         transform="scale(0.6,0.6)"
         inkscape:connector-curvature="0" /></marker><marker
       inkscape:stockid="Arrow1Sstart"
       orient="auto"
       refY="0"
       refX="0"
       id="Arrow1Sstart"
       style="overflow:visible"
       inkscape:isstock="true"><path
         id="path10434"
         d="M 0,0 5,-5 -12.5,0 5,5 0,0 Z"
         style="fill:#000000;fill-opacity:1;fill-rule:evenodd;stroke:#000000;stroke-width:1pt;stroke-opacity:1"
         transform="matrix(0.2,0,0,0.2,1.2,0)"
         inkscape:connector-curvature="0" /></marker><marker
       inkscape:stockid="Arrow2Lstart"
       orient="auto"
       refY="0"
       refX="0"
       id="Arrow2Lstart"
       style="overflow:visible"
       inkscape:isstock="true"><path
         id="path10440"
         style="fill:#000000;fill-opacity:1;fill-rule:evenodd;stroke:#000000;stroke-width:0.625;stroke-linejoin:round;stroke-opacity:1"
         d="M 8.7185878,4.0337352 -2.2072895,0.01601326 8.7185884,-4.0017078 c -1.7454984,2.3720609 -1.7354408,5.6174519 -6e-7,8.035443 z"
         transform="matrix(1.1,0,0,1.1,1.1,0)"
         inkscape:connector-curvature="0" /></marker><marker
       inkscape:stockid="Arrow1Lstart"
       orient="auto"
       refY="0"
       refX="0"
       id="Arrow1Lstart"
       style="overflow:visible"
       inkscape:isstock="true"><path
         id="path10422"
         d="M 0,0 5,-5 -12.5,0 5,5 0,0 Z"
         style="fill:#000000;fill-opacity:1;fill-rule:evenodd;stroke:#000000;stroke-width:1pt;stroke-opacity:1"
         transform="matrix(0.8,0,0,0.8,10,0)"
         inkscape:connector-curvature="0" /></marker><clipPath
       id="clipPath16"
       clipPathUnits="userSpaceOnUse"><path
         inkscape:connector-curvature="0"
         id="path18"
         d="M 0,192 192,192 192,0 0,0 0,192 Z" /></clipPath><clipPath
       id="clipPath26"
       clipPathUnits="userSpaceOnUse"><path
         inkscape:connector-curvature="0"
         id="path28"
         d="M -4.88281e-4,192 192,192 192,-4.88281e-4 l -192.000488281,0 0,192.000488281 z" /></clipPath><clipPath
       id="clipPath34"
       clipPathUnits="userSpaceOnUse"><path
         inkscape:connector-curvature="0"
         id="path36"
         d="M -4.88281e-4,192 192,192 192,-4.88281e-4 l -192.000488281,0 0,192.000488281 z" /></clipPath><clipPath
       id="clipPath38"
       clipPathUnits="userSpaceOnUse"><path
         inkscape:connector-curvature="0"
         id="path40"
         d="M 0,192 192,192 192,0 0,0 0,192 Z" /></clipPath><clipPath
       id="clipPath42"
       clipPathUnits="userSpaceOnUse"><path
         inkscape:connector-curvature="0"
         id="path44"
         d="M 0,192 192,192 192,0 0,0 0,192 Z" /></clipPath><clipPath
       id="clipPath116"
       clipPathUnits="userSpaceOnUse"><path
         inkscape:connector-curvature="0"
         id="path118"
         d="m 0,192 192,0 0,-192.000488281 -192,0 L 0,192 Z" /></clipPath><clipPath
       id="clipPath120"
       clipPathUnits="userSpaceOnUse"><path
         inkscape:connector-curvature="0"
         id="path122"
         d="m 0,192 192,0 0,-191.999511719 -192,0 L 0,192 Z" /></clipPath><clipPath
       id="clipPath124"
       clipPathUnits="userSpaceOnUse"><path
         inkscape:connector-curvature="0"
         id="path126"
         d="M 192,192 0,192 0,0 l 192,0 0,192 z" /></clipPath><filter
       style="color-interpolation-filters:sRGB"
       inkscape:label="Drop Shadow"
       id="filter10356"><feFlood
         flood-opacity="0.196078"
         flood-color="rgb(0,0,0)"
         result="flood"
         id="feFlood10358" /><feComposite
         in="flood"
         in2="SourceGraphic"
         operator="in"
         result="composite1"
         id="feComposite10360" /><feGaussianBlur
         in="composite1"
         stdDeviation="4"
         result="blur"
         id="feGaussianBlur10362" /><feOffset
         dx="4"
         dy="4"
         result="offset"
         id="feOffset10364" /><feComposite
         in="SourceGraphic"
         in2="offset"
         operator="over"
         result="composite2"
         id="feComposite10366" /></filter><marker
       inkscape:stockid="Arrow1Sstart"
       orient="auto"
       refY="0"
       refX="0"
       id="Arrow1Sstart-3"
       style="overflow:visible"
       inkscape:isstock="true"><path
         inkscape:connector-curvature="0"
         id="path10434-6"
         d="M 0,0 5,-5 -12.5,0 5,5 0,0 Z"
         style="fill:#000000;fill-opacity:1;fill-rule:evenodd;stroke:#000000;stroke-width:1pt;stroke-opacity:1"
         transform="matrix(0.2,0,0,0.2,1.2,0)" /></marker><marker
       inkscape:stockid="Arrow1Sstart"
       orient="auto"
       refY="0"
       refX="0"
       id="Arrow1Sstart-3-7"
       style="overflow:visible"
       inkscape:isstock="true"><path
         inkscape:connector-curvature="0"
         id="path10434-6-5"
         d="M 0,0 5,-5 -12.5,0 5,5 0,0 Z"
         style="fill:#000000;fill-opacity:1;fill-rule:evenodd;stroke:#000000;stroke-width:1pt;stroke-opacity:1"
         transform="matrix(0.2,0,0,0.2,1.2,0)" /></marker><marker
       inkscape:stockid="Arrow2Mstart"
       orient="auto"
       refY="0"
       refX="0"
       id="Arrow2Mstart-3"
       style="overflow:visible"
       inkscape:isstock="true"><path
         inkscape:connector-curvature="0"
         id="path10446-5"
         style="fill:#000000;fill-opacity:1;fill-rule:evenodd;stroke:#000000;stroke-width:0.625;stroke-linejoin:round;stroke-opacity:1"
         d="M 8.7185878,4.0337352 -2.2072895,0.01601326 8.7185884,-4.0017078 c -1.7454984,2.3720609 -1.7354408,5.6174519 -6e-7,8.035443 z"
         transform="scale(0.6,0.6)" /></marker><filter
       id="filter6016"
       inkscape:label="Drop Shadow"
       style="color-interpolation-filters:sRGB"><feFlood
         id="feFlood6018"
         result="flood"
         flood-color="rgb(0,0,0)"
         flood-opacity="0.239216" /><feComposite
         id="feComposite6020"
         result="composite1"
         operator="in"
         in2="SourceGraphic"
         in="flood" /><feGaussianBlur
         id="feGaussianBlur6022"
         result="blur"
         stdDeviation="2"
         in="composite1" /><feOffset
         id="feOffset6024"
         result="offset"
         dy="4"
         dx="0" /><feComposite
         id="feComposite6026"
         result="fbSourceGraphic"
         operator="over"
         in2="offset"
         in="SourceGraphic" /><feColorMatrix
         id="feColorMatrix6028"
         values="0 0 0 -1 0 0 0 0 -1 0 0 0 0 -1 0 0 0 0 1 0"
         in="fbSourceGraphic"
         result="fbSourceGraphicAlpha" /><feFlood
         in="fbSourceGraphic"
         result="flood"
         flood-color="rgb(0,0,0)"
         flood-opacity="0.121569"
         id="feFlood6030" /><feComposite
         result="composite1"
         operator="in"
         in="flood"
         in2="fbSourceGraphic"
         id="feComposite6032" /><feGaussianBlur
         result="blur"
         stdDeviation="2"
         in="composite1"
         id="feGaussianBlur6034" /><feOffset
         result="offset"
         dy="0"
         dx="0"
         id="feOffset6036" /><feComposite
         result="composite2"
         operator="over"
         in="fbSourceGraphic"
         in2="offset"
         id="feComposite6038" /></filter><filter
       id="filter6045"
       inkscape:label="Drop Shadow"
       style="color-interpolation-filters:sRGB"><feFlood
         id="feFlood6047"
         result="flood"
         flood-color="rgb(0,0,0)"
         flood-opacity="0.2" /><feComposite
         id="feComposite6049"
         result="composite1"
         operator="in"
         in2="SourceGraphic"
         in="flood" /><feGaussianBlur
         id="feGaussianBlur6051"
         result="blur"
         stdDeviation="4"
         in="composite1" /><feOffset
         id="feOffset6053"
         result="offset"
         dy="4"
         dx="0" /><feComposite
         id="feComposite6055"
         result="composite2"
         operator="over"
         in2="offset"
         in="SourceGraphic" /></filter><filter
       id="filter6016-3"
       inkscape:label="Drop Shadow"
       style="color-interpolation-filters:sRGB"><feFlood
         id="feFlood6018-5"
         result="flood"
         flood-color="rgb(0,0,0)"
         flood-opacity="0.239216" /><feComposite
         id="feComposite6020-6"
         result="composite1"
         operator="in"
         in2="SourceGraphic"
         in="flood" /><feGaussianBlur
         id="feGaussianBlur6022-2"
         result="blur"
         stdDeviation="2"
         in="composite1" /><feOffset
         id="feOffset6024-9"
         result="offset"
         dy="4"
         dx="0" /><feComposite
         id="feComposite6026-1"
         result="fbSourceGraphic"
         operator="over"
         in2="offset"
         in="SourceGraphic" /><feColorMatrix
         id="feColorMatrix6028-2"
         values="0 0 0 -1 0 0 0 0 -1 0 0 0 0 -1 0 0 0 0 1 0"
         in="fbSourceGraphic"
         result="fbSourceGraphicAlpha" /><feFlood
         in="fbSourceGraphic"
         result="flood"
         flood-color="rgb(0,0,0)"
         flood-opacity="0.121569"
         id="feFlood6030-7" /><feComposite
         result="composite1"
         operator="in"
         in="flood"
         in2="fbSourceGraphic"
         id="feComposite6032-0" /><feGaussianBlur
         result="blur"
         stdDeviation="2"
         in="composite1"
         id="feGaussianBlur6034-9" /><feOffset
         result="offset"
         dy="0"
         dx="0"
         id="feOffset6036-3" /><feComposite
         result="composite2"
         operator="over"
         in="fbSourceGraphic"
         in2="offset"
         id="feComposite6038-6" /></filter><filter
       id="filter4884"
       inkscape:label="Drop Shadow"
       style="color-interpolation-filters:sRGB"><feFlood
         id="feFlood4886"
         result="flood"
         flood-color="rgb(0,0,0)"
         flood-opacity="0.2" /><feComposite
         id="feComposite4888"
         result="composite1"
         operator="in"
         in2="SourceGraphic"
         in="flood" /><feGaussianBlur
         id="feGaussianBlur4890"
         result="blur"
         stdDeviation="4"
         in="composite1" /><feOffset
         id="feOffset4892"
         result="offset"
         dy="4"
         dx="0" /><feComposite
         id="feComposite4894"
         result="composite2"
         operator="over"
         in2="offset"
         in="SourceGraphic" /></filter><filter
       style="color-interpolation-filters:sRGB"
       inkscape:label="Drop Shadow"
       id="filter8967"><feFlood
         flood-opacity="0.2"
         flood-color="rgb(0,0,0)"
         result="flood"
         id="feFlood8969" /><feComposite
         in="flood"
         in2="SourceGraphic"
         operator="in"
         result="composite1"
         id="feComposite8971" /><feGaussianBlur
         in="composite1"
         stdDeviation="4"
         result="blur"
         id="feGaussianBlur8973" /><feOffset
         dx="0"
         dy="4"
         result="offset"
         id="feOffset8975" /><feComposite
         in="SourceGraphic"
         in2="offset"
         operator="over"
         result="composite2"
         id="feComposite8977" /></filter><filter
       style="color-interpolation-filters:sRGB"
       inkscape:label="Drop Shadow"
       id="filter4946"><feFlood
         flood-opacity="0.2"
         flood-color="rgb(0,0,0)"
         result="flood"
         id="feFlood4948" /><feComposite
         in="flood"
         in2="SourceGraphic"
         operator="in"
         result="composite1"
         id="feComposite4950" /><feGaussianBlur
         in="composite1"
         stdDeviation="4"
         result="blur"
         id="feGaussianBlur4952" /><feOffset
         dx="1"
         dy="4"
         result="offset"
         id="feOffset4954" /><feComposite
         in="SourceGraphic"
         in2="offset"
         operator="over"
         result="composite2"
         id="feComposite4956" /></filter><filter
       style="color-interpolation-filters:sRGB"
       inkscape:label="Drop Shadow"
       id="filter4786"><feFlood
         flood-opacity="0.239216"
         flood-color="rgb(0,0,0)"
         result="flood"
         id="feFlood4788" /><feComposite
         in="flood"
         in2="SourceGraphic"
         operator="in"
         result="composite1"
         id="feComposite4790" /><feGaussianBlur
         in="composite1"
         stdDeviation="4"
         result="blur"
         id="feGaussianBlur4792" /><feOffset
         dx="4"
         dy="8"
         result="offset"
         id="feOffset4794" /><feComposite
         in="SourceGraphic"
         in2="offset"
         operator="over"
         result="composite2"
         id="feComposite4796" /></filter></defs><g
     inkscape:groupmode="layer"
     id="layer4"
     inkscape:label="Work"
     style="display:inline"
     transform="translate(0,-168)"><path
       style="display:inline;fill:#ffffff;fill-opacity:1;stroke:none;stroke-width:60;stroke-linecap:round;stroke-linejoin:round;stroke-miterlimit:4;stroke-dasharray:none;stroke-opacity:1"
       d="M 2.9277344 5.0390625 C 2.4137914 5.0390625 2 5.4528469 2 5.9667969 L 2 15.447266 C 2 15.961206 2.4137914 16.375 2.9277344 16.375 L 4.625 16.375 L 4.625 12.136719 L 4.3300781 12.136719 C 4.1805401 12.136719 4.0585937 12.016728 4.0585938 11.867188 L 4.0585938 10.517578 C 4.0585938 10.368038 4.1805401 10.246094 4.3300781 10.246094 L 4.625 10.246094 L 4.625 8.9882812 L 4.0136719 8.9882812 C 3.8641339 8.9882812 3.7441406 8.8663269 3.7441406 8.7167969 L 3.7441406 7.3671875 C 3.7441406 7.2176475 3.8641339 7.0976562 4.0136719 7.0976562 L 5.3632812 7.0976562 C 5.5128192 7.0976562 5.6347656 7.2176475 5.6347656 7.3671875 L 5.6347656 7.6640625 L 7.2089844 7.6640625 L 7.2089844 7.3671875 C 7.2089844 7.2176475 7.3289776 7.0976562 7.4785156 7.0976562 L 8.828125 7.0976562 C 8.977663 7.0976562 9.0976562 7.2176475 9.0976562 7.3671875 L 9.0976562 7.6640625 L 10.988281 7.6640625 L 10.988281 7.3671875 C 10.988281 7.2176475 11.108277 7.0976562 11.257812 7.0976562 L 12.607422 7.0976562 C 12.75696 7.0976562 12.876953 7.2176475 12.876953 7.3671875 L 12.876953 7.6640625 L 14.451172 7.6640625 L 14.451172 7.3671875 C 14.451172 7.2176475 14.571165 7.0976562 14.720703 7.0976562 L 16.070312 7.0976562 C 16.21985 7.0976562 16.341797 7.2176475 16.341797 7.3671875 L 16.341797 7.6640625 L 18.375 7.6640625 L 18.375 5.9667969 C 18.375 5.4528469 17.961209 5.0390625 17.447266 5.0390625 L 2.9277344 5.0390625 z "
       transform="translate(0,168)"
       id="rect11709" /><path
       style="display:inline;fill:#ffffff;fill-opacity:1;stroke:none;stroke-width:60;stroke-linecap:round;stroke-linejoin:round;stroke-miterlimit:4;stroke-dasharray:none;stroke-opacity:1"
       d="M 6.5527344 8.6640625 C 6.0387914 8.6640625 5.625 9.0778539 5.625 9.5917969 L 5.625 19.072266 C 5.625 19.586209 6.0387914 20 6.5527344 20 L 21.072266 20 C 21.586209 20 22 19.586209 22 19.072266 L 22 9.5917969 C 22 9.0778539 21.586209 8.6640625 21.072266 8.6640625 L 6.5527344 8.6640625 z M 7.7832031 10.867188 L 9.1328125 10.867188 C 9.2823505 10.867188 9.4042969 10.987169 9.4042969 11.136719 L 9.4042969 12.486328 C 9.4042969 12.635858 9.2823505 12.757812 9.1328125 12.757812 L 7.7832031 12.757812 C 7.6336652 12.757812 7.5136719 12.635858 7.5136719 12.486328 L 7.5136719 11.136719 C 7.5136719 10.987169 7.6336652 10.867188 7.7832031 10.867188 z M 11.248047 10.867188 L 12.597656 10.867188 C 12.747194 10.867188 12.867188 10.987169 12.867188 11.136719 L 12.867188 12.486328 C 12.867186 12.635858 12.747194 12.757812 12.597656 12.757812 L 11.248047 12.757812 C 11.09851 12.757812 10.978516 12.635858 10.978516 12.486328 L 10.978516 11.136719 C 10.978516 10.987169 11.09851 10.867188 11.248047 10.867188 z M 15.027344 10.867188 L 16.376953 10.867188 C 16.526487 10.867188 16.646484 10.987169 16.646484 11.136719 L 16.646484 12.486328 C 16.646484 12.635858 16.526487 12.757812 16.376953 12.757812 L 15.027344 12.757812 C 14.877806 12.757812 14.757812 12.635858 14.757812 12.486328 L 14.757812 11.136719 C 14.757814 10.987169 14.877806 10.867188 15.027344 10.867188 z M 18.490234 10.867188 L 19.839844 10.867188 C 19.989385 10.867188 20.111328 10.987169 20.111328 11.136719 L 20.111328 12.486328 C 20.111328 12.635858 19.989385 12.757812 19.839844 12.757812 L 18.490234 12.757812 C 18.340695 12.757812 18.220703 12.635858 18.220703 12.486328 L 18.220703 11.136719 C 18.220703 10.987169 18.340695 10.867188 18.490234 10.867188 z M 8.0996094 14.017578 L 9.4492188 14.017578 C 9.5987556 14.017578 9.71875 14.137559 9.71875 14.287109 L 9.71875 15.636719 C 9.71875 15.786259 9.5987557 15.90625 9.4492188 15.90625 L 8.0996094 15.90625 C 7.9500714 15.90625 7.828125 15.786259 7.828125 15.636719 L 7.828125 14.287109 C 7.828125 14.137559 7.9500714 14.017578 8.0996094 14.017578 z M 11.5625 14.017578 L 12.912109 14.017578 C 13.061646 14.017578 13.181641 14.137559 13.181641 14.287109 L 13.181641 15.636719 C 13.181641 15.786259 13.061646 15.90625 12.912109 15.90625 L 11.5625 15.90625 C 11.412962 15.90625 11.292969 15.786259 11.292969 15.636719 L 11.292969 14.287109 C 11.292969 14.137559 11.412962 14.017578 11.5625 14.017578 z M 14.712891 14.017578 L 16.0625 14.017578 C 16.21204 14.017578 16.332031 14.137559 16.332031 14.287109 L 16.332031 15.636719 C 16.332031 15.786259 16.21204 15.90625 16.0625 15.90625 L 14.712891 15.90625 C 14.563353 15.90625 14.441406 15.786259 14.441406 15.636719 L 14.441406 14.287109 C 14.441406 14.137559 14.563353 14.017578 14.712891 14.017578 z M 18.175781 14.017578 L 19.525391 14.017578 C 19.674931 14.017578 19.794922 14.137559 19.794922 14.287109 L 19.794922 15.636719 C 19.794922 15.786259 19.674931 15.90625 19.525391 15.90625 L 18.175781 15.90625 C 18.026243 15.90625 17.90625 15.786259 17.90625 15.636719 L 17.90625 14.287109 C 17.90625 14.137559 18.026243 14.017578 18.175781 14.017578 z M 9.4042969 17.166016 L 18.220703 17.166016 C 18.395167 17.166016 18.535156 17.305989 18.535156 17.480469 L 18.535156 18.425781 C 18.535156 18.600241 18.395167 18.740234 18.220703 18.740234 L 9.4042969 18.740234 C 9.2298361 18.740234 9.0878906 18.600241 9.0878906 18.425781 L 9.0878906 17.480469 C 9.0878906 17.305989 9.2298361 17.166016 9.4042969 17.166016 z "
       transform="translate(0,168)"
       id="rect10878" /></g></svg>